<svg width="31" height="31" viewBox="0 0 31 31" fill="none" xmlns="http://www.w3.org/2000/svg">
<g id="Iconly/Light-Outline/Logout">
<g id="Logout">
<path id="Fill 1" fill-rule="evenodd" clip-rule="evenodd" d="M14.621 28.4167H8.30994C5.15311 28.4167 2.58398 25.8476 2.58398 22.6881V8.31318C2.58398 5.15376 5.15311 2.58334 8.30994 2.58334H14.6068C17.7662 2.58334 20.3367 5.15376 20.3367 8.31318V9.51701C20.3367 10.0518 19.9027 10.4858 19.3679 10.4858C18.8332 10.4858 18.3992 10.0518 18.3992 9.51701V8.31318C18.3992 6.22068 16.698 4.52084 14.6068 4.52084H8.30994C6.22132 4.52084 4.52148 6.22068 4.52148 8.31318V22.6881C4.52148 24.7793 6.22132 26.4792 8.30994 26.4792H14.621C16.7032 26.4792 18.3992 24.7845 18.3992 22.7023V21.4843C18.3992 20.9496 18.8332 20.5156 19.3679 20.5156C19.9027 20.5156 20.3367 20.9496 20.3367 21.4843V22.7023C20.3367 25.854 17.7714 28.4167 14.621 28.4167" fill="#5333ED"/>
<g id="Group 5">
<mask id="mask0" mask-type="alpha" maskUnits="userSpaceOnUse" x="11" y="14" width="19" height="3">
<path id="Clip 4" fill-rule="evenodd" clip-rule="evenodd" d="M11.6201 14.5312H29.1104V16.4687H11.6201V14.5312Z" fill="white"/>
</mask>
<g mask="url(#mask0)">
<path id="Fill 3" fill-rule="evenodd" clip-rule="evenodd" d="M28.1418 16.4687H12.5889C12.0541 16.4687 11.6201 16.0347 11.6201 15.5C11.6201 14.9652 12.0541 14.5312 12.5889 14.5312H28.1418C28.6766 14.5312 29.1106 14.9652 29.1106 15.5C29.1106 16.0347 28.6766 16.4687 28.1418 16.4687" fill="#5333ED"/>
</g>
</g>
<g id="Group 8">
<mask id="mask1" mask-type="alpha" maskUnits="userSpaceOnUse" x="23" y="10" width="7" height="11">
<path id="Clip 7" fill-rule="evenodd" clip-rule="evenodd" d="M23.3916 10.7664H29.1103V20.2352H23.3916V10.7664Z" fill="white"/>
</mask>
<g mask="url(#mask1)">
<path id="Fill 6" fill-rule="evenodd" clip-rule="evenodd" d="M24.36 20.2352C24.112 20.2352 23.8627 20.141 23.6742 19.9498C23.297 19.57 23.2983 18.9578 23.6767 18.5806L26.769 15.5L23.6767 12.4207C23.2983 12.0435 23.2957 11.4312 23.6742 11.0515C24.0513 10.6717 24.6636 10.6717 25.0433 11.0489L28.8253 14.8141C29.0087 14.995 29.1108 15.243 29.1108 15.5C29.1108 15.757 29.0087 16.005 28.8253 16.1859L25.0433 19.9524C24.8547 20.141 24.6067 20.2352 24.36 20.2352" fill="#5333ED"/>
</g>
</g>
</g>
</g>
</svg>
