<svg width="111" height="43" viewBox="0 0 111 43" fill="none" xmlns="http://www.w3.org/2000/svg">
<path d="M2.688 35V18.344H0.24V14.384H9.264V18.344H6.816V35H2.688ZM10.4276 35V14.384H18.6836V18.368H14.6276V22.376H18.5156V26.264H14.6276V30.992H18.9476V35H10.4276ZM25.1183 35.192C23.6143 35.192 22.4063 34.72 21.4943 33.776C20.5983 32.832 20.1503 31.536 20.1503 29.888V20.384C20.1503 18.336 20.5583 16.792 21.3743 15.752C22.1903 14.712 23.4703 14.192 25.2143 14.192C26.7343 14.192 27.9583 14.608 28.8863 15.44C29.8143 16.272 30.2783 17.472 30.2783 19.04V22.592H26.1743V19.544C26.1743 18.952 26.1023 18.544 25.9583 18.32C25.8142 18.096 25.5663 17.984 25.2143 17.984C24.8463 17.984 24.5903 18.112 24.4463 18.368C24.3183 18.624 24.2543 19 24.2543 19.496V29.84C24.2543 30.384 24.3343 30.784 24.4943 31.04C24.6543 31.28 24.8943 31.4 25.2143 31.4C25.8543 31.4 26.1743 30.88 26.1743 29.84V26.12H30.3263V30.008C30.3263 33.464 28.5903 35.192 25.1183 35.192ZM31.6854 35V14.384H35.7894V21.752H37.7334V14.384H41.8374V35H37.7334V25.64H35.7894V35H31.6854Z" fill="white"/>
<path d="M69.808 35.192C67.936 35.192 66.584 34.728 65.752 33.8C64.92 32.872 64.504 31.376 64.504 29.312V27.296H68.56V29.864C68.56 30.888 68.888 31.4 69.544 31.4C69.912 31.4 70.168 31.296 70.312 31.088C70.456 30.864 70.528 30.496 70.528 29.984C70.528 29.312 70.448 28.76 70.288 28.328C70.128 27.88 69.92 27.512 69.664 27.224C69.424 26.92 68.984 26.456 68.344 25.832L66.568 24.056C65.192 22.712 64.504 21.224 64.504 19.592C64.504 17.832 64.904 16.496 65.704 15.584C66.52 14.656 67.704 14.192 69.256 14.192C71.112 14.192 72.448 14.688 73.264 15.68C74.08 16.656 74.488 18.192 74.488 20.288H70.288L70.264 18.872C70.264 18.6 70.184 18.384 70.024 18.224C69.88 18.064 69.672 17.984 69.4 17.984C69.08 17.984 68.84 18.072 68.68 18.248C68.52 18.424 68.44 18.664 68.44 18.968C68.44 19.64 68.824 20.336 69.592 21.056L71.992 23.36C72.552 23.904 73.016 24.424 73.384 24.92C73.752 25.4 74.048 25.976 74.272 26.648C74.496 27.304 74.608 28.088 74.608 29C74.608 31.032 74.232 32.576 73.48 33.632C72.744 34.672 71.52 35.192 69.808 35.192ZM75.9745 35V14.384H80.0785V21.752H82.0225V14.384H86.1265V35H82.0225V25.64H80.0785V35H75.9745ZM92.8711 35.192C91.2071 35.192 89.9431 34.688 89.0791 33.68C88.2151 32.656 87.7831 31.224 87.7831 29.384V19.568C87.7831 17.792 88.2151 16.456 89.0791 15.56C89.9431 14.648 91.2071 14.192 92.8711 14.192C94.5351 14.192 95.7991 14.648 96.6631 15.56C97.5271 16.456 97.9591 17.792 97.9591 19.568V29.384C97.9591 31.24 97.5271 32.672 96.6631 33.68C95.7991 34.688 94.5351 35.192 92.8711 35.192ZM92.8711 31.4C93.2391 31.4 93.4871 31.24 93.6151 30.92C93.7431 30.6 93.8071 30.152 93.8071 29.576V19.496C93.8071 19.048 93.7431 18.688 93.6151 18.416C93.5031 18.128 93.2631 17.984 92.8951 17.984C92.2071 17.984 91.8631 18.504 91.8631 19.544V29.6C91.8631 30.192 91.9351 30.64 92.0791 30.944C92.2231 31.248 92.4871 31.4 92.8711 31.4ZM99.6229 14.384H105.071C106.719 14.384 107.895 14.92 108.599 15.992C109.303 17.048 109.655 18.6 109.655 20.648C109.655 22.696 109.343 24.24 108.719 25.28C108.095 26.32 106.975 26.84 105.359 26.84H103.679V35H99.6229V14.384ZM103.919 23.12C104.415 23.12 104.775 23.032 104.999 22.856C105.239 22.664 105.391 22.4 105.455 22.064C105.535 21.712 105.575 21.216 105.575 20.576C105.575 19.712 105.479 19.088 105.287 18.704C105.095 18.32 104.711 18.128 104.135 18.128H103.679V23.12H103.919Z" fill="white"/>
<path d="M60.75 8.4375H60.1875V1.125C60.1875 0.813938 59.9355 0.5625 59.625 0.5625H48.375C48.0645 0.5625 47.8125 0.813938 47.8125 1.125V8.4375H47.25C46.9395 8.4375 46.6875 8.68894 46.6875 9V19.125C46.6875 20.6758 47.9492 21.9375 49.5 21.9375H50.0625V24.1875C50.0625 25.1179 50.8196 25.875 51.75 25.875H52.3125V35.4375H53.4375V25.875H54.5625V35.4375H55.6875V25.875H56.25C57.1804 25.875 57.9375 25.1179 57.9375 24.1875V21.9375H58.5C60.0508 21.9375 61.3125 20.6758 61.3125 19.125V9C61.3125 8.68894 61.0605 8.4375 60.75 8.4375ZM48.9375 1.6875H59.0625V8.4375H48.9375V1.6875ZM56.8125 24.1875C56.8125 24.498 56.5599 24.75 56.25 24.75H51.75C51.4401 24.75 51.1875 24.498 51.1875 24.1875V21.9375H56.8125V24.1875ZM60.1875 19.125C60.1875 20.0554 59.4304 20.8125 58.5 20.8125H49.5C48.5696 20.8125 47.8125 20.0554 47.8125 19.125V9.5625H60.1875V19.125Z" fill="white"/>
<path d="M52.3125 3.375H50.0625C49.752 3.375 49.5 3.62644 49.5 3.9375V5.625C49.5 5.93606 49.752 6.1875 50.0625 6.1875H52.3125C52.623 6.1875 52.875 5.93606 52.875 5.625V3.9375C52.875 3.62644 52.623 3.375 52.3125 3.375ZM51.75 5.0625H50.625V4.5H51.75V5.0625Z" fill="white"/>
<path d="M57.9375 3.375H55.6875C55.377 3.375 55.125 3.62644 55.125 3.9375V5.625C55.125 5.93606 55.377 6.1875 55.6875 6.1875H57.9375C58.248 6.1875 58.5 5.93606 58.5 5.625V3.9375C58.5 3.62644 58.248 3.375 57.9375 3.375ZM57.375 5.0625H56.25V4.5H57.375V5.0625Z" fill="white"/>
<path d="M50.8978 16.2321L53.4375 17.7559V19.6875H54.5625V16.0684L57.1022 14.5446C57.2715 14.4433 57.375 14.2605 57.375 14.0625V10.6875H56.25V13.7441L54.5625 14.7566V10.6875H53.4375V16.4441L51.75 15.4316V12.375H50.625V15.75C50.625 15.948 50.7285 16.1308 50.8978 16.2321Z" fill="white"/>
</svg>
