<svg width="19" height="19" viewBox="0 0 19 19" fill="none" xmlns="http://www.w3.org/2000/svg">
<path fill-rule="evenodd" clip-rule="evenodd" d="M16.4285 17.3689H10.6865C10.3588 17.3689 10.0928 17.1029 10.0928 16.7752C10.0928 16.4474 10.3588 16.1814 10.6865 16.1814H16.4285C16.7562 16.1814 17.0222 16.4474 17.0222 16.7752C17.0222 17.1029 16.7562 17.3689 16.4285 17.3689Z" fill="#2196F3"/>
<mask id="mask0" mask-type="alpha" maskUnits="userSpaceOnUse" x="1" y="2" width="15" height="16">
<path fill-rule="evenodd" clip-rule="evenodd" d="M1.58398 2.37512H15.1853V17.3689H1.58398V2.37512Z" fill="white"/>
</mask>
<g mask="url(#mask0)">
<path fill-rule="evenodd" clip-rule="evenodd" d="M10.3797 3.97163L2.92615 13.2935C2.79078 13.4629 2.7409 13.6814 2.79078 13.8912L3.3299 16.1752L5.73578 16.1451C5.96457 16.1427 6.17594 16.0406 6.31607 15.8664C8.86286 12.68 13.7182 6.60471 13.8559 6.42659C13.9857 6.21601 14.0364 5.91834 13.9683 5.63176C13.8987 5.33805 13.7158 5.08867 13.4522 4.92955C13.3959 4.89076 12.062 3.85526 12.0208 3.8228C11.5189 3.42063 10.7866 3.4903 10.3797 3.97163ZM2.86116 17.369C2.58645 17.369 2.34737 17.1806 2.28324 16.9122L1.63487 14.1643C1.50108 13.5951 1.63408 13.0077 1.99903 12.5517L9.45653 3.2243C9.4597 3.22113 9.46208 3.21717 9.46524 3.21401C10.283 2.2363 11.7619 2.09221 12.7594 2.89259C12.799 2.92346 14.1234 3.95263 14.1234 3.95263C14.6047 4.23921 14.9808 4.75142 15.1233 5.35784C15.265 5.95792 15.1621 6.57701 14.832 7.1003C14.8074 7.13909 14.786 7.17234 7.24303 16.609C6.87966 17.0618 6.33499 17.3255 5.74995 17.3326L2.86908 17.369H2.86116Z" fill="#2196F3"/>
</g>
<path fill-rule="evenodd" clip-rule="evenodd" d="M12.8435 9.25047C12.7168 9.25047 12.5901 9.21009 12.4817 9.12776L8.1655 5.81226C7.90583 5.61276 7.85675 5.24068 8.05625 4.97943C8.25654 4.71976 8.62863 4.67147 8.88908 4.87097L13.206 8.18568C13.4657 8.38518 13.5148 8.75805 13.3145 9.01851C13.1981 9.17051 13.0216 9.25047 12.8435 9.25047Z" fill="#2196F3"/>
</svg>
