<svg width="80" height="80" viewBox="0 0 80 80" fill="none" xmlns="http://www.w3.org/2000/svg">
<path d="M33.8511 37.4523L32.4561 42.1016H35.1825L33.8511 37.4523Z" fill="white"/>
<path d="M76.4488 39.9999L79.9998 33.6646L74.6647 28.7367L76.0845 21.6139L69.4877 18.5757L68.6369 11.3629L61.4241 10.5122L58.386 3.91531L51.2633 5.33499L46.3354 0L39.9999 3.55109L33.6646 0L28.7368 5.33515L21.6142 3.91546L18.5761 10.5123L11.3633 11.3631L10.5125 18.5759L3.91546 21.614L5.3353 28.7368L0 33.6646L3.55124 39.9999L0 46.3352L5.33515 51.2632L3.91531 58.386L10.5122 61.4241L11.3629 68.6369L18.5757 69.4877L21.6139 76.0845L28.7365 74.6647L33.6643 79.9998L39.9996 76.4488L46.3349 79.9998L51.2627 74.6647L58.3854 76.0845L61.4235 69.4877L68.6363 68.6369L69.4871 61.4241L76.0839 58.386L74.6641 51.2632L79.9992 46.3352L76.4488 39.9999ZM26.1474 45.4724C25.8164 46.0852 25.3795 46.5751 24.8373 46.9412C24.2946 47.3076 23.6817 47.5718 22.9985 47.7337C22.3151 47.8955 21.6282 47.9768 20.9379 47.9768C20.3884 47.9768 19.8248 47.9344 19.2475 47.8501C18.6697 47.7655 18.0957 47.6458 17.525 47.4908C16.9543 47.336 16.4048 47.1527 15.8765 46.9413C15.3483 46.7299 14.8586 46.4907 14.4078 46.2227L16.1829 42.6088C16.6759 42.9188 17.19 43.1937 17.7256 43.433C18.1764 43.6444 18.6872 43.8344 19.2578 44.0037C19.8284 44.1727 20.4096 44.2573 21.0014 44.2573C21.452 44.2573 21.7654 44.1976 21.9418 44.0776C22.1179 43.958 22.2059 43.7996 22.2059 43.6019C22.2059 43.3905 22.1178 43.211 21.9418 43.063C21.7654 42.9151 21.5225 42.7849 21.2128 42.6721C20.9028 42.5596 20.547 42.4469 20.1456 42.334C19.7442 42.2215 19.3178 42.0876 18.867 41.9326C18.2047 41.7074 17.634 41.4643 17.1551 41.2035C16.6761 40.9429 16.2814 40.6471 15.9717 40.3159C15.6617 39.9851 15.4328 39.6079 15.2848 39.1852C15.137 38.7626 15.0629 38.2765 15.0629 37.727C15.0629 36.8957 15.2142 36.1631 15.5172 35.5291C15.8201 34.8952 16.232 34.3668 16.7534 33.9442C17.2745 33.5215 17.87 33.2013 18.5393 32.9826C19.2082 32.7643 19.9162 32.6551 20.6632 32.6551C21.2128 32.6551 21.7481 32.7079 22.2692 32.8137C22.7904 32.9193 23.2942 33.0535 23.7803 33.2151C24.2664 33.3773 24.7207 33.5532 25.1434 33.7435C25.566 33.9338 25.9465 34.1134 26.2846 34.2824L24.5095 37.6849C24.0868 37.4313 23.65 37.206 23.1992 37.0087C22.8189 36.8395 22.3925 36.681 21.9206 36.5331C21.4484 36.3852 20.9871 36.311 20.5365 36.311C20.17 36.311 19.8778 36.3674 19.6595 36.4802C19.4411 36.5932 19.332 36.7834 19.332 37.0509C19.332 37.2484 19.3953 37.4101 19.5223 37.537C19.649 37.6637 19.8318 37.7801 20.0718 37.8856C20.3112 37.9912 20.6034 38.0937 20.9489 38.192C21.2939 38.2906 21.6848 38.4106 22.1217 38.5512C22.8118 38.7626 23.4353 38.9949 23.992 39.2485C24.5485 39.5021 25.024 39.8016 25.4187 40.1466C25.8128 40.492 26.116 40.9112 26.3274 41.404C26.5389 41.8974 26.6443 42.496 26.6443 43.2004C26.644 44.1023 26.4784 44.8596 26.1474 45.4724ZM36.7457 47.7865L35.837 44.8491H31.8428L30.9551 47.7865H26.7495L31.9695 32.782H35.7312L40.9301 47.7865H36.7457ZM42.1768 47.7865V32.782H46.2977V44.194H53.1026V47.7866H42.1768V47.7865ZM65.2333 47.7865H65.2332H54.5397V32.782H65.0432V36.3748H58.6608V38.4881H64.1133V41.8271H58.6608V44.1941H65.2333V47.7865Z" fill="white"/>
</svg>
