<svg width="31" height="31" viewBox="0 0 31 31" fill="none" xmlns="http://www.w3.org/2000/svg">
<path d="M23.4932 23.0352C21.5094 23.0352 19.8735 24.6362 19.8735 26.6549C19.8735 28.6388 21.4746 30.2746 23.4932 30.2746C25.4771 30.2746 27.1129 28.6736 27.1129 26.6549C27.0781 24.671 25.4771 23.0352 23.4932 23.0352Z" fill="#5333ED"/>
<path d="M29.8625 5.77201C29.7929 5.77201 29.6885 5.7372 29.5841 5.7372H7.65706L7.30901 3.40528C7.10018 1.87387 5.7776 0.725311 4.21138 0.725311H1.39219C0.626486 0.725311 0 1.3518 0 2.1175C0 2.88321 0.626486 3.5097 1.39219 3.5097H4.21138C4.38541 3.5097 4.52462 3.64891 4.55943 3.82294L6.71733 18.5106C6.99577 20.3552 8.59679 21.7474 10.4762 21.7474H24.955C26.7649 21.7474 28.3311 20.4596 28.714 18.6846L30.9763 7.37303C31.1155 6.64213 30.6282 5.91123 29.8625 5.77201Z" fill="#5333ED"/>
<path d="M14.6179 26.4809C14.5483 24.5666 12.9473 23.0352 11.0331 23.0352C9.01438 23.1396 7.48296 24.8103 7.55257 26.7941C7.62218 28.7084 9.1884 30.2398 11.1027 30.2398H11.1723C13.1561 30.1354 14.7224 28.4648 14.6179 26.4809Z" fill="#5333ED"/>
</svg>
