<svg width="80" height="76" viewBox="0 0 80 76" fill="none" xmlns="http://www.w3.org/2000/svg">
<path d="M40 0.499939C33.5388 0.499939 28.2812 5.91376 28.2812 12.375C28.2812 18.8361 33.5388 24.0937 40 24.0937C46.4612 24.0937 51.7188 18.8361 51.7188 12.375C51.7188 5.91376 46.4612 0.499939 40 0.499939Z" fill="white"/>
<path d="M56.4063 42.8438C61.5766 42.8438 65.7813 38.639 65.7813 33.4687C65.7813 28.2984 61.5766 24.0937 56.4063 24.0937C51.236 24.0937 47.0312 28.2984 47.0312 33.4687C47.0312 38.639 51.236 42.8438 56.4063 42.8438Z" fill="white"/>
<path d="M2.34375 70.9688H4.68751C7.27662 70.9688 9.37501 68.8698 9.37501 66.2813V38.1562C9.37501 35.5671 7.27662 33.4687 4.68751 33.4687H2.34375C1.0492 33.4687 0 34.5179 0 35.8125V68.625C0 69.9196 1.0492 70.9688 2.34375 70.9688Z" fill="white"/>
<path d="M14.063 38.1562V66.2813C14.063 66.7537 13.991 67.2066 13.9238 67.6601L27.5994 74.4204C29.2174 75.2285 31.0308 75.6563 32.8387 75.6563C33.5576 75.6563 54.01 75.6563 54.01 75.6563C55.7519 75.6563 57.4548 75.1735 58.9379 74.258L78.128 60.6911C80.1947 59.1347 80.6158 56.1909 79.0643 54.1243C77.6568 52.2481 74.9292 51.4351 72.5018 53.1886L58.0755 61.3258C57.7392 61.5022 57.3663 61.5938 56.986 61.5938C56.1413 61.5938 29.1503 61.5938 30.1568 61.5938C28.861 61.5938 27.813 60.5458 27.813 59.25C27.813 57.9549 28.861 56.9063 30.1568 56.9063H51.7193C54.3084 56.9063 56.4068 54.8073 56.4068 52.2188C56.4068 49.6297 54.3084 47.5313 51.7193 47.5313H40.7098L29.6001 40.1246C27.6708 38.8362 25.4229 38.1562 23.0999 38.1562H14.063Z" fill="white"/>
</svg>
