<svg width="80" height="80" viewBox="0 0 80 80" fill="none" xmlns="http://www.w3.org/2000/svg">
<g clip-path="url(#clip0)">
<path d="M40.0001 38.2609C46.7236 38.2609 52.1741 32.8104 52.1741 26.0869C52.1741 19.3634 46.7236 13.913 40.0001 13.913C33.2766 13.913 27.8262 19.3634 27.8262 26.0869C27.8262 32.8104 33.2766 38.2609 40.0001 38.2609Z" fill="white"/>
<path d="M64.3479 45.2173C69.1504 45.2173 73.0435 41.3242 73.0435 36.5217C73.0435 31.7193 69.1504 27.8261 64.3479 27.8261C59.5455 27.8261 55.6523 31.7193 55.6523 36.5217C55.6523 41.3242 59.5455 45.2173 64.3479 45.2173Z" fill="white"/>
<path d="M15.8997 45.2173C20.7021 45.2173 24.5953 41.3242 24.5953 36.5217C24.5953 31.7193 20.7021 27.8261 15.8997 27.8261C11.0973 27.8261 7.2041 31.7193 7.2041 36.5217C7.2041 41.3242 11.0973 45.2173 15.8997 45.2173Z" fill="white"/>
<path d="M39.9994 41.7391C27.5332 41.7391 17.3906 51.8817 17.3906 64.3478C17.3906 65.3078 18.1698 66.087 19.1298 66.087H60.8689C61.8289 66.087 62.6081 65.3078 62.6081 64.3478C62.6081 51.8817 52.4655 41.7391 39.9994 41.7391Z" fill="white"/>
<path d="M18.8974 49.0713C17.833 48.8452 16.7512 48.6957 15.6522 48.6957C7.0226 48.6957 0 55.7183 0 64.3478C0 65.3078 0.779184 66.087 1.73918 66.087H14.233C14.0382 65.541 13.913 64.9601 13.913 64.3478C13.913 58.64 15.7774 53.3705 18.8974 49.0713Z" fill="white"/>
<path d="M64.3478 48.6957C63.2487 48.6957 62.1669 48.8452 61.1025 49.0713C64.2225 53.3705 66.0869 58.64 66.0869 64.3478C66.0869 64.9601 65.9617 65.5408 65.7669 66.087H78.2607C79.2207 66.087 79.9999 65.3078 79.9999 64.3478C79.9999 55.7183 72.9773 48.6957 64.3478 48.6957Z" fill="white"/>
</g>
<defs>
<clipPath id="clip0">
<rect width="80" height="80" fill="white"/>
</clipPath>
</defs>
</svg>
